HIERARCHY
ROOT joint_0
{
	OFFSET 0.000000 0.000000 0.000000
	CHANNELS 6 Xposition Yposition Zposition Zrotation Yrotation Xrotation 
	JOINT joint_1
	{
		OFFSET 5.091736 1.614004 124.993042
		CHANNELS 3 Zrotation Yrotation Xrotation
		JOINT joint_2
		{
			OFFSET -7.754517 4.363039 113.797974
			CHANNELS 3 Zrotation Yrotation Xrotation
			JOINT joint_3
			{
				OFFSET -8.706238 5.370684 113.558960
				CHANNELS 3 Zrotation Yrotation Xrotation
				JOINT joint_4
				{
					OFFSET 2.800659 5.843341 158.209106
					CHANNELS 3 Zrotation Yrotation Xrotation
					JOINT joint_5
					{
						OFFSET 20.525452 8.617594 92.185913
						CHANNELS 3 Zrotation Yrotation Xrotation
						End Site
						{
							OFFSET 0.000000 0.000000 0.000000
						}
					}
				}
				JOINT joint_6
				{
					OFFSET -4.183167 -30.671114 90.057007
					CHANNELS 3 Zrotation Yrotation Xrotation
					JOINT joint_7
					{
						OFFSET -24.729675 -138.200195 -6.097900
						CHANNELS 3 Zrotation Yrotation Xrotation
						JOINT joint_8
						{
							OFFSET 16.966858 -51.567780 -315.633057
							CHANNELS 3 Zrotation Yrotation Xrotation
							JOINT joint_9
							{
								OFFSET 129.835388 -40.459091 176.646973
								CHANNELS 3 Zrotation Yrotation Xrotation
								End Site
								{
									OFFSET 0.000000 0.000000 0.000000
								}
							}
						}
					}
				}
				JOINT joint_10
				{
					OFFSET 7.338745 37.199406 87.346069
					CHANNELS 3 Zrotation Yrotation Xrotation
					JOINT joint_11
					{
						OFFSET 20.327698 137.488367 -20.779053
						CHANNELS 3 Zrotation Yrotation Xrotation
						JOINT joint_12
						{
							OFFSET 150.763062 48.206573 -278.419922
							CHANNELS 3 Zrotation Yrotation Xrotation
							JOINT joint_13
							{
								OFFSET 12.571289 -162.355251 152.253906
								CHANNELS 3 Zrotation Yrotation Xrotation
								End Site
								{
									OFFSET 0.000000 0.000000 0.000000
								}
							}
						}
					}
				}
			}
		}
	}
	JOINT joint_14
	{
		OFFSET -7.600342 -77.970001 -95.010986
		CHANNELS 3 Zrotation Yrotation Xrotation
		JOINT joint_15
		{
			OFFSET -2.666199 -21.455009 -443.700989
			CHANNELS 3 Zrotation Yrotation Xrotation
			JOINT joint_16
			{
				OFFSET -22.487976 -19.310196 -481.059006
				CHANNELS 3 Zrotation Yrotation Xrotation
				JOINT joint_17
				{
					OFFSET 177.776611 65.723053 -82.445997
					CHANNELS 3 Zrotation Yrotation Xrotation
					End Site
					{
						OFFSET 0.000000 0.000000 0.000000
					}
				}
			}
		}
	}
	JOINT joint_18
	{
		OFFSET 17.063904 75.900681 -95.447021
		CHANNELS 3 Zrotation Yrotation Xrotation
		JOINT joint_19
		{
			OFFSET -21.510803 8.101997 -443.629944
			CHANNELS 3 Zrotation Yrotation Xrotation
			JOINT joint_20
			{
				OFFSET -7.473022 -28.501774 -481.230011
				CHANNELS 3 Zrotation Yrotation Xrotation
				JOINT joint_21
				{
					OFFSET 177.760559 -64.115177 -83.737001
					CHANNELS 3 Zrotation Yrotation Xrotation
					End Site
					{
						OFFSET 0.000000 0.000000 0.000000
					}
				}
			}
		}
	}
}
MOTION
Frames: 7
Frame Time: 0.016667
-456.866425 -58.957008 1119.704956 11.260381 0.581593 1.165742 0.159305 0.214225 0.952611 0.102393 -0.013001 -0.185069 0.135414 0.088515 0.171982 -0.196637 -9.413875 2.387137 0.000000 0.000000 0.000000 3.258509 0.499082 6.497307 12.817330 0.291213 -2.318961 -179.278024 39.280098 179.601517 0.000000 0.000000 0.000000 -9.109712 16.695777 -4.640186 -16.393887 6.599737 3.389718 56.650915 -18.610659 112.601172 0.000000 0.000000 0.000000 -9.241017 1.961628 -4.246854 -9.134244 -0.280319 0.330389 -8.856558 -4.139519 -2.534301 0.000000 0.000000 0.000000 -2.623729 -4.062593 1.934393 -2.514222 6.575943 4.207611 -1.556091 -6.047438 -2.898445 0.000000 0.000000 0.000000 
-456.671844 -58.891281 1119.666992 11.269152 0.553049 1.158659 0.161510 0.168688 0.929738 0.103751 -0.010884 -0.182465 0.136766 0.079923 0.168430 -0.219096 -9.363660 2.474658 0.000000 0.000000 0.000000 3.278367 0.516382 6.512170 12.804223 0.285720 -2.295160 -179.281679 39.251960 179.606765 0.000000 0.000000 0.000000 -9.120663 16.674681 -4.615297 -16.371754 6.622882 3.350943 56.715284 -18.577747 112.571193 0.000000 0.000000 0.000000 -9.252304 2.001196 -4.268547 -9.144510 -0.268398 0.362747 -8.864165 -4.146189 -2.535265 0.000000 0.000000 0.000000 -2.623626 -4.022761 1.947518 -2.513265 6.580333 4.193034 -1.554712 -6.052090 -2.899469 0.000000 0.000000 0.000000 
-456.528900 -58.818245 1119.629028 11.277939 0.520764 1.150785 0.162765 0.140659 0.914848 0.104490 -0.009377 -0.181144 0.137593 0.074406 0.166805 -0.239033 -9.320543 2.552369 0.000000 0.000000 0.000000 3.306349 0.531737 6.525327 12.815192 0.282441 -2.279629 -179.267135 39.244511 179.614941 0.000000 0.000000 0.000000 -9.125421 16.644709 -4.590251 -16.340869 6.638939 3.307220 56.787726 -18.544196 112.529773 0.000000 0.000000 0.000000 -9.263340 2.035018 -4.290169 -9.155390 -0.244070 0.392403 -8.871909 -4.154719 -2.535598 0.000000 0.000000 0.000000 -2.624178 -3.989336 1.957394 -2.512986 6.598381 4.182960 -1.552898 -6.054673 -2.899539 0.000000 0.000000 0.000000 
-456.421478 -58.736927 1119.588989 11.288337 0.484398 1.142364 0.163558 0.125848 0.907047 0.104986 -0.009647 -0.180679 0.138032 0.072796 0.165746 -0.257137 -9.276337 2.622964 0.000000 0.000000 0.000000 3.338640 0.545255 6.538381 12.843906 0.279715 -2.272034 -179.240560 39.250936 179.623961 0.000000 0.000000 0.000000 -9.125544 16.606393 -4.562812 -16.302245 6.649795 3.256745 56.867930 -18.509124 112.478027 0.000000 0.000000 0.000000 -9.274938 2.066863 -4.312668 -9.167339 -0.211084 0.421076 -8.880317 -4.165142 -2.535529 0.000000 0.000000 0.000000 -2.625602 -3.958807 1.963897 -2.513769 6.625574 4.177604 -1.551378 -6.055147 -2.898984 0.000000 0.000000 0.000000 
-456.335480 -58.661259 1119.546021 11.297127 0.446388 1.132288 0.164107 0.119371 0.901993 0.105455 -0.010784 -0.180913 0.138478 0.073347 0.166146 -0.275462 -9.223439 2.694872 0.000000 0.000000 0.000000 3.378121 0.558157 6.550249 12.880219 0.278234 -2.263004 -179.206340 39.269332 179.639553 0.000000 0.000000 0.000000 -9.122444 16.566591 -4.534843 -16.259042 6.658768 3.205868 56.949377 -18.475943 112.421495 0.000000 0.000000 0.000000 -9.286436 2.095426 -4.334477 -9.179732 -0.171113 0.450601 -8.888786 -4.175636 -2.535480 0.000000 0.000000 0.000000 -2.627002 -3.928075 1.974923 -2.514018 6.653196 4.167225 -1.549674 -6.052293 -2.897140 0.000000 0.000000 0.000000 
-456.269531 -58.601341 1119.500000 11.304497 0.407358 1.119647 0.164793 0.121720 0.896772 0.106590 -0.012777 -0.180093 0.139369 0.074724 0.165639 -0.296286 -9.160327 2.776950 0.000000 0.000000 0.000000 3.425919 0.571166 6.561071 12.920334 0.278341 -2.246556 -179.164877 39.301232 179.665760 0.000000 0.000000 0.000000 -9.119666 16.527417 -4.504353 -16.214444 6.667882 3.158748 57.025832 -18.445614 112.364045 0.000000 0.000000 0.000000 -9.298122 2.120604 -4.353714 -9.192850 -0.124796 0.480861 -8.897629 -4.186189 -2.535613 0.000000 0.000000 0.000000 -2.628674 -3.895473 1.995589 -2.513520 6.676753 4.145515 -1.548265 -6.044310 -2.893573 0.000000 0.000000 0.000000 
-456.229156 -58.549809 1119.452026 11.309843 0.366748 1.105246 0.166450 0.133130 0.893038 0.109017 -0.014219 -0.179148 0.141515 0.077196 0.164856 -0.318591 -9.089307 2.864802 0.000000 0.000000 0.000000 3.480009 0.584043 6.570608 12.968078 0.279351 -2.225661 -179.114422 39.347595 179.701581 0.000000 0.000000 0.000000 -9.118132 16.486083 -4.471827 -16.165884 6.676101 3.112710 57.101542 -18.417248 112.302750 0.000000 0.000000 0.000000 -9.309664 2.141875 -4.371558 -9.206433 -0.071074 0.511131 -8.906585 -4.196940 -2.535746 0.000000 0.000000 0.000000 -2.630374 -3.862429 2.022314 -2.512340 6.699546 4.116366 -1.546789 -6.031737 -2.888316 0.000000 0.000000 0.000000 
